<?xml version="1.0" encoding="utf-8"?>
<svg viewBox="0 0 512 512" xmlns="http://www.w3.org/2000/svg">
  <path d="M 256 32 C 268.5 32 280.1 38.4 286.8 49 L 503.4 394.4 C 509 403.3 512 413.6 512 424.1 C 512 455 487 480 456.1 480 L 55.9 480 C 25 480 0 455 0 424.1 C 0 413.6 3 403.3 8.6 394.4 L 225.2 49 C 231.8 38.4 243.5 32 256 32 Z M 321 224 L 256 120.4 L 176.9 246.5 L 195.2 270.9 C 201.6 279.4 214.4 279.4 220.8 270.9 L 246.4 236.8 C 252.4 228.7 261.9 224 272 224 L 321 224 Z" transform="matrix(-1, 0, 0, -1, 512, 512)"/>
</svg>